<svg version="1.1" xmlns="http://www.w3.org/2000/svg" xmlns:xlink="http://www.w3.org/1999/xlink" width="1108.80005" height="790" viewBox="0,0,1108.80005,790">

<!-- BLUE - Walls (outer frame and long inner lines) -->
<g fill="none" fill-rule="nonzero" stroke="#0000FF" stroke-width="2" stroke-linecap="butt" stroke-linejoin="miter" stroke-miterlimit="10">
<path d="M171,167c54.23429,0 108.74042,5.42596 163,0c38.75269,-3.87527 80.71988,-7.5712 120,-6c79.33337,3.17333 158.31724,8.32011 238,5c43.42326,-1.8093 86.7925,-1.83963 130,-4c6.15564,-0.30778 49.40037,-3.59963 52,-1c10.34723,10.34723 3,80.06013 3,96c0,17.58324 2.82117,34.56937 5,52c1.86325,14.906 -2.94013,31.29933 0,46c8.72808,43.64041 4.2729,122.08969 -2,166c-4.08631,28.6042 -4,60.04697 -4,89c0,4.44722 6.14466,9.85534 3,13c-1.49214,1.49214 -11.79388,-1.93969 -13,-2c-30.62628,-1.53131 -61.29412,-3 -92,-3c-36.64104,0 -73.45208,4.95434 -110,8c-69.12908,5.76076 -138.75453,5 -208,5c-21.33333,0 -42.66667,0 -64,0c-55.46568,0 -110.89344,-1 -166,-1c-13.86865,0 -28.1252,3 -42,3c-0.40728,0 -3.87525,0.2495 -4,0c-1.62507,-3.25013 7.45687,-107.97438 6,-124c-5.33903,-58.72937 -0.4725,-118.14245 -5,-177c-4.23861,-55.10197 -12,-111.68285 -12,-166"/>
<path d="M185,359c18.10127,0 43.91882,3.99188 64,6c40.68314,4.06831 83.04157,-3.56017 123,-8c22.1538,-2.46153 45.66412,0.39599 68,-1c9.39055,-0.58691 70.81294,3.18706 72,2c0.41412,-0.41412 0.09378,-4.43731 0,-5c-2.63336,-15.80013 -4,-31.96192 -4,-48c0,-18.78153 2.31603,-36.47628 4,-55c2.70895,-29.79849 -3,-60.02781 -3,-88"/>
<path d="M182,437c53.63594,0 107.70857,1.32914 161,-4c31.65728,-3.16573 63.35234,5.27461 95,0c21.24878,-3.54146 45.61866,-8 67,-8c0.77979,0 6.73109,-0.53782 7,0c4.57487,9.14974 -1,48.63979 -1,60c0,11.46425 5.15486,70.53541 3,77c-3.03825,9.11475 -11.2247,34.5506 -6,45c5.93935,11.8787 4,13.29238 4,27"/>
<path d="M513,425c125.2032,0 249.83383,3 375,3"/>
<path d="M170,121c24.09167,0 47.82226,-4 72,-4c88.00298,0 175.90516,4 264,4"/>
</g>

<!-- GREEN - Doors (curved paths that intersect/touch walls) -->
<g fill="none" fill-rule="nonzero" stroke="#00FF00" stroke-width="2" stroke-linecap="butt" stroke-linejoin="miter" stroke-miterlimit="10">
<path d="M434,435c0,17.27859 -2.31943,32.17014 17,37c0.97014,0.24254 2,0 3,0c8.45048,0 17.54245,4 27,4c1.33333,0 4,1.33333 4,0c0,-15.4179 -3,-33.2837 -3,-50"/>
<path d="M481,355c0,-5.66104 -0.74356,-55.74356 -1,-56c-1.92223,-1.92223 -10.24824,1 -12,1c-29.54721,0 -30,31.98598 -30,55"/>
<path d="M529,427c0,8.0377 -0.57154,16.14229 1,24c0.87849,4.39246 -1.25553,24.74447 2,28c5.67953,5.67953 53.4768,-21.04639 39,-50c-1.42667,-2.85334 1.34364,-5 -3,-5"/>
</g>

<!-- RED - Text (paths within walls that don't intersect walls) -->
<g fill="none" fill-rule="nonzero" stroke="#FF0000" stroke-width="2" stroke-linecap="butt" stroke-linejoin="miter" stroke-miterlimit="10">
<path d="M624,216c0,5.39804 1.59527,31.59527 5,35c2.58095,2.58095 15.07547,-5 18,-5"/>
<path d="M648,222c3.30423,3.30423 3.44697,14.34092 5,19c0.47555,1.42666 0,8.77597 0,7"/>
<path d="M657,221c0,4.59024 5.17775,14.53324 7,20c4.47721,13.43164 4,-16.91461 4,-24"/>
<path d="M677,218c0,9.93124 2,19.77979 2,30"/>
<path d="M687,249c0,-5.00773 -4.93804,-29.06196 -2,-32c0.994,-0.994 4.71768,5.43537 5,6c1.59942,3.19885 12,32.97879 12,17c0,-8.33333 0,-16.66667 0,-25"/>
<path d="M722,215c-9.06267,0 -23.64012,18.67994 -11,25c13.84006,6.92003 25.2873,-11 8,-11"/>
<path d="M271,218c0,7.50846 -0.364,18.908 2,26c0.87979,2.63936 1,10.14447 1,10"/>
<path d="M268,220c2.1463,0 14.58509,-9.24474 16,-5c2.61883,7.8565 -4.1379,16 -11,16c-0.4714,0 -1.33333,-0.66667 -1,-1c11.67836,-11.67836 33.96117,17 -1,17"/>
<path d="M292,219c0,8.93245 1,16.3568 1,25"/>
<path d="M290,218c4.72825,0 12.83048,-2 18,-2"/>
<path d="M291,230c5.43623,0 10.89486,-1 16,-1"/>
<path d="M292,243c6.90941,0 11.91797,-2 18,-2"/>
<path d="M312,209c0,8.1171 2,16.53527 2,24c0,2.22064 2,10.54582 2,8"/>
<path d="M310,205c0,7.52513 36.73585,35 6,35"/>
<path d="M330,215c0,0.84869 0,26 0,26c0,0 -1.69725,-27.60551 -1,-29c0.42164,-0.84327 1.15673,-1.57836 2,-2c1.84555,-0.92277 5.13703,0.27407 6,2c4.04631,8.09261 2.18673,8.81327 -3,14c-0.43592,0.43592 -3.79968,2.20032 -3,3c3.96364,3.96364 10.07709,5.07709 14,9"/>
<path d="M356,214c-19.90557,0 -16.75798,17.8105 -8,20c20.34468,5.08617 5,-18.81775 5,-25"/>
<path d="M371,213c0,-2.99874 -5.08498,0.62747 -6,2c-4.58473,6.8771 -6.23083,18.88458 2,23c7.82645,3.91323 16.19022,-23 1,-23"/>
<path d="M389,232c0,-2.22906 -7.98859,-32.48289 1,-19c1.80116,2.70173 4.38043,7.38043 6,9c5.56464,5.56464 9.34339,-12.65661 10,-12c5.30093,5.30093 4.79458,16.38373 7,23c0.56347,1.69042 2.03922,14.03922 0,12"/>
<path d="M298,525c3.12779,0 -1.9731,-2.0269 -2,-2c-2.03618,2.03618 -5.86194,6.58583 -7,10c-1.85149,5.55446 7.59578,13.60281 13,10c20.58225,-13.7215 -6,-27.53716 -6,-21"/>
<path d="M311,521c3.65172,0 2,16.47963 2,20"/>
<path d="M312,521c5.90092,0 9.13071,-5 14,-5"/>
<path d="M314,529c4.52239,0 8.01808,-2 12,-2"/>
<path d="M330,515c0,9.51727 1,19.19677 1,29"/>
<path d="M330,514c0,1.84441 9.47691,1 12,1"/>
<path d="M329,529c4.28724,0 7.46963,-2 11,-2"/>
<path d="M353,512c-2.61437,0 -2,25.4438 -2,31"/>
<path d="M367,516c-7.55445,0 -20.66763,12.55491 -11,19c3.9943,2.66286 11.30884,-2 14,-2"/>
<path d="M371,513c0,2.86685 4.3507,22 2,22"/>
<path d="M370,514c3.05451,0 5.29796,-1 8,-1"/>
<path d="M371,523c4.05599,4.05599 6.83647,0 11,0"/>
<path d="M374,531c4.99074,1.66358 10.72846,1 16,1"/>
<path d="M512,355"/>
<path d="M628,508c0,-2.90509 -4,2.33273 -4,3c0,5.39875 -11.51922,13.74039 -1,19c10.45132,5.22566 21.84815,-23 2,-23"/>
<path d="M642,510c0,6.75297 1,12.32802 1,19"/>
<path d="M642,507c3.07318,0 9,-5.07318 9,-2"/>
<path d="M643,516c1.83202,0 8,-0.79819 8,1"/>
<path d="M654,502c0,3.56951 -0.39326,23 4,23"/>
<path d="M653,505c4,0 8,0 12,0"/>
<path d="M651,515c3.94463,0 8.50932,-1 13,-1"/>
<path d="M667,503c0,3.60769 2.44562,18.44562 5,21"/>
<path d="M682,500c-7.58622,0 -13.74628,19 4,19"/>
<path d="M689,497c1.16921,0 6,20.43155 6,24"/>
<path d="M686,497c5.04243,0 9.17434,1 14,1"/>
<path d="M694,508c3,0 6,0 9,0"/>
<path d="M692,516c5.31778,2.65889 14.01983,1 20,1"/>
</g>

<!-- MAGENTA - Everything outside the big bounding box -->
<g fill="none" fill-rule="nonzero" stroke="#FF00FF" stroke-width="2" stroke-linecap="butt" stroke-linejoin="miter" stroke-miterlimit="10">
<path d="M170,103c0,7.63065 -2.37384,24.62616 3,30"/>
<path d="M170,121c24.09167,0 47.82226,-4 72,-4c88.00298,0 175.90516,4 264,4"/>
<path d="M508,107c0,7.33333 0,14.66667 0,22"/>
<path d="M295,87c6.33746,0 13.57306,4.42694 6,12c-3.93208,3.93208 -14,5.5874 -14,6c0,2.33333 4.66667,0 7,0c4.25683,0 17.03105,1.96895 20,-1"/>
<path d="M320,83c0,13.61157 4.67793,10 18,10"/>
<path d="M338,80c0,5.73104 3,24.09149 3,23"/>
<path d="M350,69c0,5.33333 0,10.66667 0,16"/>
</g>
</svg>